<svg width="69" height="82" viewBox="0 0 69 82" fill="none" xmlns="http://www.w3.org/2000/svg">
<g filter="url(#filter0_d_8038_733)">
<path d="M54.1164 0C37.4109 8.25094 20.7055 16.5031 4 24.7553C4.00506 26.2971 4.00885 27.8401 4.01391 29.3819C4.00885 29.3844 4.00506 29.3869 4 29.3895C4.00506 31.104 4.01012 32.8184 4.01644 34.5329C4.01138 34.5354 4.00506 34.538 4 34.5405C4.00506 36.0822 4.00885 37.6253 4.01391 39.1671C4.00885 39.1696 4.00506 39.1721 4 39.1746C4.0215 46.3981 4.04427 53.6229 4.06703 60.8464C7.56547 63.6866 11.0639 66.5256 14.5636 69.3659C15.817 68.699 17.0717 68.0321 18.3251 67.3652C21.3151 69.5764 24.3051 71.7888 27.2951 74C30.6885 68.8578 34.0807 63.7156 37.4742 58.5722C46.649 53.8271 55.8239 49.082 65 44.337V7.874C61.3726 5.24934 57.7438 2.62467 54.1164 0ZM19.1245 63.3223L18.1038 64.8389H17.9609C17.9254 64.2199 17.8888 63.6009 17.8533 62.9819C17.7572 61.3154 17.6611 59.65 17.565 57.9847C17.4878 56.6598 17.4119 55.3336 17.3348 54.0087C17.3183 54.0124 17.3019 54.0124 17.2867 54.02L11.3472 56.9712L7.41116 58.9264L5.78463 59.7345V26.0361L53.3335 2.41162V36.11L29.4516 47.9752C26.7803 51.945 24.1103 55.9135 21.4391 59.8833C20.6675 61.0292 19.896 62.1764 19.1245 63.3223Z" fill="#AE7AFF"/>
<path d="M11.4004 38.2216V31.0435L8.75195 32.3546V29.0189L17.8813 24.5007V27.8364L15.2252 29.15V36.3281L11.3992 38.2216H11.4004Z" fill="#AE7AFF"/>
<path d="M11.4004 38.2216V31.0435L8.75195 32.3546V29.0189L17.8813 24.5007V27.8364L15.2252 29.15V36.3281L11.3992 38.2216H11.4004Z" fill="white" fill-opacity="0.8"/>
<path d="M19.25 34.3363V23.8212L23.076 21.9277V32.4428L19.25 34.3363Z" fill="#AE7AFF"/>
<path d="M19.25 34.3363V23.8212L23.076 21.9277V32.4428L19.25 34.3363Z" fill="white" fill-opacity="0.8"/>
<path d="M31.6444 28.202C31.1789 27.4153 30.7944 26.8518 30.4934 26.5102C30.1924 26.1685 29.9002 25.9631 29.6181 25.895C29.3361 25.8269 28.9921 25.8786 28.5848 26.0513V29.7173L24.7588 31.6108V21.0957L28.5848 19.2022V22.6929C28.9529 22.4774 29.264 22.2025 29.5195 21.871C29.775 21.5394 30.0317 21.0768 30.2923 20.4843C30.5516 19.8918 30.8804 19.0194 31.2776 17.8697L35.4855 15.7871C35.1807 16.6217 34.9139 17.3276 34.6837 17.9037C34.4535 18.4799 34.2195 19.0093 33.9817 19.4909C33.7439 19.9725 33.5226 20.3696 33.3189 20.6797C33.1153 20.9911 32.8839 21.2797 32.6233 21.5483C32.3628 21.8155 32.1009 22.0424 31.8366 22.2278C31.5723 22.4131 31.2561 22.6034 30.888 22.8001V23.6649C31.3092 23.4758 31.6747 23.3371 31.9846 23.2476C32.2932 23.1581 32.5955 23.1165 32.8889 23.1228C33.1836 23.1291 33.4454 23.1846 33.6756 23.2905C33.9058 23.3964 34.1487 23.5741 34.4041 23.825C34.6596 24.0759 34.9075 24.3759 35.1504 24.7276C35.3932 25.0793 35.6689 25.5231 35.9776 26.0589L31.6444 28.2032V28.202Z" fill="#AE7AFF"/>
<path d="M31.6444 28.202C31.1789 27.4153 30.7944 26.8518 30.4934 26.5102C30.1924 26.1685 29.9002 25.9631 29.6181 25.895C29.3361 25.8269 28.9921 25.8786 28.5848 26.0513V29.7173L24.7588 31.6108V21.0957L28.5848 19.2022V22.6929C28.9529 22.4774 29.264 22.2025 29.5195 21.871C29.775 21.5394 30.0317 21.0768 30.2923 20.4843C30.5516 19.8918 30.8804 19.0194 31.2776 17.8697L35.4855 15.7871C35.1807 16.6217 34.9139 17.3276 34.6837 17.9037C34.4535 18.4799 34.2195 19.0093 33.9817 19.4909C33.7439 19.9725 33.5226 20.3696 33.3189 20.6797C33.1153 20.9911 32.8839 21.2797 32.6233 21.5483C32.3628 21.8155 32.1009 22.0424 31.8366 22.2278C31.5723 22.4131 31.2561 22.6034 30.888 22.8001V23.6649C31.3092 23.4758 31.6747 23.3371 31.9846 23.2476C32.2932 23.1581 32.5955 23.1165 32.8889 23.1228C33.1836 23.1291 33.4454 23.1846 33.6756 23.2905C33.9058 23.3964 34.1487 23.5741 34.4041 23.825C34.6596 24.0759 34.9075 24.3759 35.1504 24.7276C35.3932 25.0793 35.6689 25.5231 35.9776 26.0589L31.6444 28.2032V28.202Z" fill="white" fill-opacity="0.8"/>
<path d="M36.0957 22.4876V20.1705L41.3484 17.571V19.8881L36.0957 22.4876Z" fill="#AE7AFF"/>
<path d="M36.0957 22.4876V20.1705L41.3484 17.571V19.8881L36.0957 22.4876Z" fill="white" fill-opacity="0.8"/>
<path d="M11.4004 52.593V45.4148L8.75195 46.7259V43.3902L17.8813 38.8721V42.2077L15.2252 43.5213V50.6995L11.3992 52.593H11.4004Z" fill="#AE7AFF"/>
<path d="M11.4004 52.593V45.4148L8.75195 46.7259V43.3902L17.8813 38.8721V42.2077L15.2252 43.5213V50.6995L11.3992 52.593H11.4004Z" fill="white" fill-opacity="0.8"/>
<path d="M21.5376 47.5756L17.5801 49.5347L21.2214 37.2181L25.7747 34.9641L29.4161 43.6764L25.4585 45.6355L25.098 44.6257L21.8981 46.2091L21.5376 47.5756ZM22.5381 43.3121L24.4656 42.3578C24.2835 41.7678 24.1583 41.2497 24.0862 40.8009C24.0154 40.3521 23.9698 39.7584 23.9496 39.0209L23.0453 39.4684C23.02 40.2336 22.9757 40.874 22.9087 41.3909C22.8416 41.9078 22.719 42.5482 22.5368 43.3121H22.5381Z" fill="#AE7AFF"/>
<path d="M21.5376 47.5756L17.5801 49.5347L21.2214 37.2181L25.7747 34.9641L29.4161 43.6764L25.4585 45.6355L25.098 44.6257L21.8981 46.2091L21.5376 47.5756ZM22.5381 43.3121L24.4656 42.3578C24.2835 41.7678 24.1583 41.2497 24.0862 40.8009C24.0154 40.3521 23.9698 39.7584 23.9496 39.0209L23.0453 39.4684C23.02 40.2336 22.9757 40.874 22.9087 41.3909C22.8416 41.9078 22.719 42.5482 22.5368 43.3121H22.5381Z" fill="white" fill-opacity="0.8"/>
<path d="M30.4902 43.1456V32.6306L34.3163 30.7371V37.9152L37.9424 36.12V39.4557L30.4902 43.1431V43.1456Z" fill="#AE7AFF"/>
<path d="M30.4902 43.1456V32.6306L34.3163 30.7371V37.9152L37.9424 36.12V39.4557L30.4902 43.1431V43.1456Z" fill="white" fill-opacity="0.8"/>
<path d="M46.1746 35.3838C45.7092 34.5972 45.3247 34.0337 45.0237 33.6921C44.7226 33.3504 44.4305 33.1449 44.1484 33.0769C43.8664 33.0088 43.5223 33.0605 43.1151 33.2332V36.8991L39.2891 38.7926V28.2776L43.1151 26.3841V29.8748C43.4831 29.6592 43.7943 29.3844 44.0498 29.0529C44.3053 28.7213 44.562 28.2587 44.8226 27.6662C45.0818 27.0737 45.4107 26.2013 45.8078 25.0516L50.0158 22.969C49.711 23.8035 49.4441 24.5095 49.2139 25.0856C48.9837 25.6617 48.7498 26.1912 48.512 26.6728C48.2742 27.1543 48.0529 27.5514 47.8505 27.8616C47.6469 28.1729 47.4154 28.4616 47.1548 28.7302C46.8943 28.9974 46.6325 29.2243 46.3681 29.4096C46.1038 29.595 45.7876 29.7853 45.4195 29.982V30.8468C45.8407 30.6577 46.2062 30.519 46.5161 30.4295C46.8247 30.34 47.127 30.2984 47.4205 30.3047C47.7151 30.311 47.977 30.3665 48.2072 30.4724C48.4374 30.5783 48.6802 30.756 48.9357 31.0069C49.1912 31.2578 49.4391 31.5578 49.6819 31.9095C49.9248 32.2612 50.2005 32.705 50.5091 33.2407L46.1759 35.3851L46.1746 35.3838Z" fill="#AE7AFF"/>
<path d="M46.1746 35.3838C45.7092 34.5972 45.3247 34.0337 45.0237 33.6921C44.7226 33.3504 44.4305 33.1449 44.1484 33.0769C43.8664 33.0088 43.5223 33.0605 43.1151 33.2332V36.8991L39.2891 38.7926V28.2776L43.1151 26.3841V29.8748C43.4831 29.6592 43.7943 29.3844 44.0498 29.0529C44.3053 28.7213 44.562 28.2587 44.8226 27.6662C45.0818 27.0737 45.4107 26.2013 45.8078 25.0516L50.0158 22.969C49.711 23.8035 49.4441 24.5095 49.2139 25.0856C48.9837 25.6617 48.7498 26.1912 48.512 26.6728C48.2742 27.1543 48.0529 27.5514 47.8505 27.8616C47.6469 28.1729 47.4154 28.4616 47.1548 28.7302C46.8943 28.9974 46.6325 29.2243 46.3681 29.4096C46.1038 29.595 45.7876 29.7853 45.4195 29.982V30.8468C45.8407 30.6577 46.2062 30.519 46.5161 30.4295C46.8247 30.34 47.127 30.2984 47.4205 30.3047C47.7151 30.311 47.977 30.3665 48.2072 30.4724C48.4374 30.5783 48.6802 30.756 48.9357 31.0069C49.1912 31.2578 49.4391 31.5578 49.6819 31.9095C49.9248 32.2612 50.2005 32.705 50.5091 33.2407L46.1759 35.3851L46.1746 35.3838Z" fill="white" fill-opacity="0.8"/>
</g>
<defs>
<filter id="filter0_d_8038_733" x="0" y="0" width="69" height="82" filterUnits="userSpaceOnUse" color-interpolation-filters="sRGB">
<feFlood flood-opacity="0" result="BackgroundImageFix"/>
<feColorMatrix in="SourceAlpha" type="matrix" values="0 0 0 0 0 0 0 0 0 0 0 0 0 0 0 0 0 0 127 0" result="hardAlpha"/>
<feOffset dy="4"/>
<feGaussianBlur stdDeviation="2"/>
<feComposite in2="hardAlpha" operator="out"/>
<feColorMatrix type="matrix" values="0 0 0 0 0 0 0 0 0 0 0 0 0 0 0 0 0 0 0.25 0"/>
<feBlend mode="normal" in2="BackgroundImageFix" result="effect1_dropShadow_8038_733"/>
<feBlend mode="normal" in="SourceGraphic" in2="effect1_dropShadow_8038_733" result="shape"/>
</filter>
</defs>
</svg>
