<svg width="132" height="132" viewBox="0 0 132 132" fill="none" xmlns="http://www.w3.org/2000/svg" id="avatar_default">
<path d="M66 11C35.64 11 11 35.64 11 66C11 96.36 35.64 121 66 121C96.36 121 121 96.36 121 66C121 35.64 96.36 11 66 11ZM40.425 101.75C47.63 96.58 56.43 93.5 66 93.5C75.57 93.5 84.37 96.58 91.575 101.75C84.37 106.92 75.57 110 66 110C56.43 110 47.63 106.92 40.425 101.75ZM99.77 94.16C90.475 86.9 78.76 82.5 66 82.5C53.24 82.5 41.525 86.9 32.23 94.16C25.85 86.515 22 76.725 22 66C22 41.69 41.69 22 66 22C90.31 22 110 41.69 110 66C110 76.725 106.15 86.515 99.77 94.16Z" fill="currentColor"/>
<path d="M66 33C55.385 33 46.75 41.635 46.75 52.25C46.75 62.865 55.385 71.5 66 71.5C76.615 71.5 85.25 62.865 85.25 52.25C85.25 41.635 76.615 33 66 33ZM66 60.5C61.435 60.5 57.75 56.815 57.75 52.25C57.75 47.685 61.435 44 66 44C70.565 44 74.25 47.685 74.25 52.25C74.25 56.815 70.565 60.5 66 60.5Z" fill="currentColor"/>
</svg>
